<svg width="200" height="176" viewBox="0 0 200 176" fill="none" xmlns="http://www.w3.org/2000/svg">
<path d="M40.615 140.956C40.615 140.956 48.3376 136.252 54.8169 143.863C54.8169 143.863 47.068 151.659 40.615 140.956Z" fill="#CB9F0D"/>
<path d="M48.3445 151.523C48.3445 151.523 55.0242 145.189 63.1039 151.38C63.1039 151.38 57.0596 160.797 48.3445 151.523Z" fill="#CB9F0D"/>
<path d="M57.823 160.367C57.823 160.367 63.0122 152.765 72.2184 157.109C72.2184 157.111 68.3033 167.594 57.823 160.367Z" fill="#CB9F0D"/>
<path d="M83.2368 171.52C83.2368 171.52 85.0536 164.911 92.5907 165.747C92.5907 165.744 92.3686 174.078 83.2368 171.52Z" fill="#CB9F0D"/>
<path d="M84.63 147.984C84.63 147.984 93.7206 150.016 93.4447 160.185C93.4459 160.185 82.2214 160.397 84.63 147.984Z" fill="#CB9F0D"/>
<path d="M67.4367 140.43C67.4367 140.43 74.4004 145.765 69.7766 154.288C69.7766 154.288 60.3884 149.717 67.4367 140.43Z" fill="#CB9F0D"/>
<path d="M75.2682 145.256C75.2682 145.256 83.2758 148.838 80.7505 158.198C80.7505 158.193 70.5575 155.919 75.2682 145.256Z" fill="#CB9F0D"/>
<path d="M54.9095 126.62C54.9095 126.62 59.6031 133.47 52.7574 140.849C52.7563 140.853 46.1109 134.386 54.9095 126.62Z" fill="#CB9F0D"/>
<path d="M60.4355 134.113C60.4355 134.113 66.0345 140.25 60.2672 148.502C60.2672 148.502 52.793 143.013 60.4355 134.113Z" fill="#CB9F0D"/>
<path d="M50.6316 118.07C50.6316 118.07 53.608 124.591 47.0828 131.618C47.0863 131.618 42.2542 125.461 50.6316 118.07Z" fill="#CB9F0D"/>
<path d="M48.2757 108.986C48.2757 108.986 50.231 115.884 42.719 121.842C42.719 121.842 39.0809 113.392 48.2757 108.986Z" fill="#CB9F0D"/>
<path d="M47.1345 99.9747C47.1345 99.9747 48.0503 106.654 40.2659 111.217C40.2693 111.217 37.9924 102.871 47.1345 99.9747Z" fill="#CB9F0D"/>
<path d="M47.8477 90.3619C47.8477 90.3619 47.8477 98.2622 39.7886 100.126C39.7886 100.126 38.7915 92.1179 47.8477 90.3619Z" fill="#CB9F0D"/>
<path d="M50.2711 81.2366C50.2711 81.2366 49.0657 89.0899 40.7695 89.7145C40.7707 89.7145 41.0019 81.6015 50.2711 81.2366Z" fill="#CB9F0D"/>
<path d="M54.0363 72.0596C54.0363 72.0596 52.0902 79.4359 43.7849 79.0561C43.7849 79.0561 44.79 71.3058 54.0363 72.0596Z" fill="#CB9F0D"/>
<path d="M58.9552 64.212C58.9552 64.212 56.1791 70.8584 48.4565 69.4227C48.4565 69.4216 50.4061 62.305 58.9552 64.212Z" fill="#CB9F0D"/>
<path d="M66.3436 57.2865C66.3436 57.2865 62.5658 63.4181 55.1592 60.7961C55.1592 60.7961 58.1974 54.0696 66.3436 57.2865Z" fill="#CB9F0D"/>
<path d="M35.4006 129.664C35.4006 129.664 43.643 126.556 48.3022 135.183C48.3022 135.183 39.4371 141.291 35.4006 129.664Z" fill="#CB9F0D"/>
<path d="M32.2581 117.516C32.2581 117.516 40.5656 116.324 43.1184 125.31C43.1184 125.31 33.6169 129.167 32.2581 117.516Z" fill="#CB9F0D"/>
<path d="M31.2129 105.228C31.2129 105.228 38.9515 105.614 40.2451 114.869C40.2451 114.873 30.9473 116.957 31.2129 105.228Z" fill="#CB9F0D"/>
<path d="M32.7011 92.9725C32.7011 92.9725 39.8262 95.1689 38.8336 104.104C38.8382 104.104 29.6732 103.844 32.7011 92.9725Z" fill="#CB9F0D"/>
<path d="M35.1166 81.0386C35.1166 81.0386 41.4014 84.8767 39.6487 93.0721C39.6487 93.0721 31.3274 90.5565 35.1166 81.0386Z" fill="#CB9F0D"/>
<path d="M40.0964 69.7328C40.0964 69.7328 45.4241 74.8097 41.9818 82.4514C41.9818 82.4514 34.3806 78.2359 40.0964 69.7328Z" fill="#CB9F0D"/>
<path d="M47.0107 59.9599C47.0107 59.9599 50.8502 65.8948 45.922 72.2633C45.9186 72.2633 39.762 66.6235 47.0107 59.9599Z" fill="#CB9F0D"/>
<path d="M55.4821 51.6353C55.4821 51.6353 57.7716 58.0598 51.7398 62.9605C51.7376 62.9559 47.1986 56.2992 55.4821 51.6353Z" fill="#CB9F0D"/>
<path d="M66.0426 44.4694C66.0426 44.4694 68.4889 48.0775 59.7372 55.1495C59.7372 55.1495 55.5771 49.5635 66.0426 44.4694Z" fill="#CB9F0D"/>
<path d="M63.2378 53.2174C63.2378 53.2174 65.2984 56.79 74.9476 52.3102C74.943 52.3102 71.9163 46.4622 63.2378 53.2174Z" fill="#CB9F0D"/>
<path d="M73.0508 47.4037C73.0508 47.4037 75.5899 51.522 85.507 48.1759C85.507 48.1759 81.3915 42.9022 73.0508 47.4037Z" fill="#CB9F0D"/>
<path d="M80.5811 43.6824C80.5811 43.6824 83.7154 46.1499 90.426 40.747C90.4318 40.747 85.752 37.8367 80.5811 43.6824Z" fill="#CB9F0D"/>
<path d="M69.092 48.2778C69.092 48.2778 76.6005 46.6304 78.447 40.0229C78.447 40.0217 68.3296 41.2801 69.092 48.2778Z" fill="#CB9F0D"/>
<path d="M160.263 140.92C160.263 140.92 152.541 136.216 146.067 143.826C146.062 143.822 153.811 151.618 160.263 140.92Z" fill="#CB9F0D"/>
<path d="M152.533 151.482C152.533 151.482 145.853 145.148 137.775 151.339C137.775 151.339 143.818 160.756 152.533 151.482Z" fill="#CB9F0D"/>
<path d="M143.057 160.328C143.057 160.328 137.869 152.726 128.662 157.071C128.66 157.071 132.574 167.552 143.057 160.328Z" fill="#CB9F0D"/>
<path d="M117.643 171.48C117.643 171.48 115.826 164.87 108.289 165.706C108.287 165.706 108.51 174.036 117.643 171.48Z" fill="#CB9F0D"/>
<path d="M116.247 147.942C116.247 147.942 107.157 149.975 107.433 160.144C107.432 160.144 118.656 160.356 116.247 147.942Z" fill="#CB9F0D"/>
<path d="M133.441 140.389C133.441 140.389 126.478 145.724 131.101 154.247C131.101 154.247 140.49 149.675 133.441 140.389Z" fill="#CB9F0D"/>
<path d="M125.61 145.215C125.61 145.215 117.597 148.797 120.128 158.157C120.128 158.157 130.32 155.878 125.61 145.215Z" fill="#CB9F0D"/>
<path d="M145.97 126.585C145.97 126.585 141.276 133.433 148.122 140.812C148.122 140.812 154.767 134.346 145.97 126.585Z" fill="#CB9F0D"/>
<path d="M140.442 134.073C140.442 134.073 134.844 140.209 140.61 148.462C140.61 148.462 148.084 142.979 140.442 134.073Z" fill="#CB9F0D"/>
<path d="M150.246 118.029C150.246 118.029 147.269 124.549 153.795 131.577C153.791 131.577 158.625 125.42 150.246 118.029Z" fill="#CB9F0D"/>
<path d="M152.602 108.945C152.602 108.945 150.648 115.843 158.16 121.8C158.16 121.8 161.796 113.35 152.602 108.945Z" fill="#CB9F0D"/>
<path d="M153.744 99.9336C153.744 99.9336 152.828 106.613 160.613 111.175C160.608 111.176 162.885 102.826 153.744 99.9336Z" fill="#CB9F0D"/>
<path d="M153.031 90.3208C153.031 90.3208 153.031 98.2222 161.089 100.085C161.089 100.08 162.086 92.0722 153.031 90.3208Z" fill="#CB9F0D"/>
<path d="M150.612 81.1953C150.612 81.1953 151.817 89.0486 160.114 89.6732C160.107 89.6698 159.875 81.5614 150.612 81.1953Z" fill="#CB9F0D"/>
<path d="M146.841 72.0184C146.841 72.0184 148.787 79.3958 157.094 79.0161C157.094 79.0161 156.087 71.2646 146.841 72.0184Z" fill="#CB9F0D"/>
<path d="M141.922 64.1708C141.922 64.1708 144.699 70.8173 152.421 69.3816C152.421 69.3816 150.471 62.2638 141.922 64.1708Z" fill="#CB9F0D"/>
<path d="M134.535 57.2453C134.535 57.2453 138.313 63.3781 145.718 60.755C145.718 60.755 142.681 54.0284 134.535 57.2453Z" fill="#CB9F0D"/>
<path d="M165.477 129.623C165.477 129.623 157.235 126.516 152.575 135.142C152.575 135.142 161.442 141.25 165.477 129.623Z" fill="#CB9F0D"/>
<path d="M168.619 117.475C168.619 117.475 160.313 116.282 157.754 125.269C157.754 125.269 167.264 129.125 168.619 117.475Z" fill="#CB9F0D"/>
<path d="M169.666 105.19C169.666 105.19 161.926 105.577 160.633 114.831C160.633 114.837 169.931 116.916 169.666 105.19Z" fill="#CB9F0D"/>
<path d="M168.172 92.9313C168.172 92.9313 161.047 95.1277 162.039 104.063C162.039 104.063 171.204 103.802 168.172 92.9313Z" fill="#CB9F0D"/>
<path d="M165.761 80.9974C165.761 80.9974 159.481 84.8354 161.229 93.0308C161.229 93.0308 169.55 90.5164 165.761 80.9974Z" fill="#CB9F0D"/>
<path d="M160.781 69.6916C160.781 69.6916 155.455 74.7685 158.896 82.4102C158.896 82.4102 166.497 78.1947 160.781 69.6916Z" fill="#CB9F0D"/>
<path d="M153.87 59.9187C153.87 59.9187 150.032 65.8536 154.959 72.222C154.962 72.222 161.116 66.5834 153.87 59.9187Z" fill="#CB9F0D"/>
<path d="M145.399 51.5941C145.399 51.5941 143.102 58.0186 149.141 62.9193C149.141 62.9159 153.68 56.258 145.399 51.5941Z" fill="#CB9F0D"/>
<path d="M134.835 44.4294C134.835 44.4294 132.388 48.0364 141.14 55.1095C141.14 55.1095 145.301 49.5224 134.835 44.4294Z" fill="#CB9F0D"/>
<path d="M137.641 53.1773C137.641 53.1773 135.58 56.7499 125.931 52.2702C125.931 52.2702 128.961 46.4279 137.641 53.1773Z" fill="#CB9F0D"/>
<path d="M127.831 47.3625C127.831 47.3625 125.293 51.4808 115.376 48.1358C115.372 48.1358 119.486 42.861 127.831 47.3625Z" fill="#CB9F0D"/>
<path d="M120.296 43.6423C120.296 43.6423 117.162 46.1099 110.451 40.7069C110.446 40.708 115.124 37.7955 120.296 43.6423Z" fill="#CB9F0D"/>
<path d="M131.785 48.2365C131.785 48.2365 124.277 46.5892 122.431 39.9816C122.431 39.9816 132.548 41.2377 131.785 48.2365Z" fill="#CB9F0D"/>
<path d="M100.515 65.6649C105.758 65.6649 110.008 62.198 110.008 57.9213C110.008 53.6447 105.758 50.1778 100.515 50.1778C95.2716 50.1778 91.0212 53.6447 91.0212 57.9213C91.0212 62.198 95.2716 65.6649 100.515 65.6649Z" fill="#FFC108"/>
<path d="M100.846 45.5859H100.502V48.7719H100.846V45.5859Z" fill="#FFC108"/>
<path d="M100.846 66.8877H100.502V70.0737H100.846V66.8877Z" fill="#FFC108"/>
<path d="M115.014 57.7497H111.826V58.0929H115.014V57.7497Z" fill="#FFC108"/>
<path d="M89.5744 57.7497H86.3862V58.0929H89.5744V57.7497Z" fill="#FFC108"/>
<path d="M88.236 51.5835L88.0796 51.8891L90.918 53.3399L91.0744 53.0344L88.236 51.5835Z" fill="#FFC108"/>
<path d="M110.488 62.25L110.332 62.5555L113.17 64.0064L113.327 63.7008L110.488 62.25Z" fill="#FFC108"/>
<path d="M90.7398 62.2472L87.9014 63.698L88.0578 64.0036L90.8962 62.5527L90.7398 62.2472Z" fill="#FFC108"/>
<path d="M113.034 51.588L110.195 53.0378L110.351 53.3434L113.19 51.8936L113.034 51.588Z" fill="#FFC108"/>
<path d="M107.991 47.0917L105.999 49.5799L106.267 49.7942L108.259 47.3061L107.991 47.0917Z" fill="#FFC108"/>
<path d="M94.2821 65.5393L92.3054 68.0243L92.5733 68.2371L94.55 65.752L94.2821 65.5393Z" fill="#FFC108"/>
<path d="M112.302 32.7563L112.304 38.7221" stroke="#6B4A00" stroke-miterlimit="10"/>
<path d="M106.381 65.6611L106.113 65.8754L108.104 68.3636L108.372 68.1493L106.381 65.6611Z" fill="#FFC108"/>
<path d="M93.171 46.8779L92.9028 47.0922L94.8941 49.5803L95.1623 49.366L93.171 46.8779Z" fill="#FFC108"/>
<path d="M117.28 30.5554L108.315 35.455V39.3182C99.0862 49.543 90.5439 39.0791 90.5439 39.0791V35.3372L82.4985 30.8345L99.7135 23.2237L117.28 30.5554Z" fill="#6B5628" stroke="black" stroke-miterlimit="10"/>
<path d="M41.699 162.151C41.699 162.151 46.1636 153.376 59.286 162.151C59.286 162.151 60.7937 159.375 60.3163 157.076C60.3163 157.076 63.1988 156.601 70.4177 160.697C70.4177 160.697 68.1705 146.796 85.0959 156.337C85.0959 156.337 96.9957 162.806 116.143 155.567C116.143 155.567 130.767 147.589 128.493 160.75C128.493 160.75 136.215 156.442 139.254 156.495C139.254 156.495 140.682 160.222 139.836 162.574C139.836 162.574 151.023 153.693 157.343 161.887C157.343 161.887 153.323 162.337 152.371 163.685C152.371 163.685 158.03 165.349 157.105 168.604C157.105 168.604 150.008 166.647 146.633 169.344C146.633 169.344 138.384 174.695 135.854 172.753C135.854 172.753 135.347 169.006 134.117 170.77C134.117 170.77 125.026 174.127 120.319 172.382C120.319 172.382 117.992 172.127 118.68 168.846C118.68 168.846 101.165 179.028 80.2799 168.846C80.2799 168.846 81.973 173.406 77.6286 173.129C77.6286 173.129 67.4539 173.308 63.8044 170.48C63.8044 170.48 64.228 172.62 63.1702 173.162C63.1702 173.162 59.1498 173.941 54.0991 170.48C54.0991 170.48 48.334 166.119 42.1935 169.052C42.1935 169.052 40.8976 165.326 46.689 164.11C46.697 164.106 44.4762 161.807 41.699 162.151Z" fill="#9D882C"/>
<path opacity="0.8" d="M58.3862 132.103V88.2331C58.3862 88.2331 76.817 77.4512 98.5572 88.2331V131.618C98.5572 131.618 77.0036 121.664 58.3862 132.103Z" fill="#7FE3FD"/>
<path opacity="0.8" d="M66.2141 120.95V76.552C66.2141 76.552 84.5681 72.1671 98.5572 88.233V131.618C98.5572 131.618 82.8224 115.85 66.2141 120.95Z" fill="#2DACEB"/>
<path opacity="0.8" d="M77.1626 112.6V68.4802C77.1626 68.4802 87.7677 67.2218 98.5571 88.2331V131.618C98.5571 131.618 87.8994 111.7 77.1626 112.6Z" fill="#0F85D9"/>
<path opacity="0.8" d="M141.029 132.117V88.2479C141.029 88.2479 122.598 77.4649 100.858 88.2479V131.633C100.858 131.633 122.412 121.678 141.029 132.117Z" fill="#7FE3FD"/>
<path opacity="0.8" d="M133.201 120.964V76.5668C133.201 76.5668 114.848 72.1797 100.858 88.2479V131.633C100.858 131.633 116.594 115.867 133.201 120.964Z" fill="#2DACEB"/>
<path opacity="0.8" d="M122.253 112.613V68.4939C122.253 68.4939 111.649 67.2355 100.858 88.2479V131.633C100.858 131.633 111.516 111.715 122.253 112.613Z" fill="#0F85D9"/>
<path d="M31.8232 169.797L39.0959 162.146L40.7341 163.701L33.4625 171.349L35.7818 173.551L34.3772 175.029L28.113 169.081L29.5177 167.603L31.8232 169.797Z" fill="white"/>
<path d="M23.3497 164.457C22.324 163.247 21.9653 161.892 22.2736 160.391C22.582 158.89 23.5092 157.485 25.0554 156.176C26.6321 154.839 28.1764 154.153 29.6883 154.116C31.2001 154.08 32.4907 154.69 33.5599 155.947C34.6283 157.207 35.0187 158.58 34.731 160.065C34.4433 161.55 33.511 162.961 31.9343 164.298C30.3576 165.633 28.8064 166.319 27.2808 166.357C25.7553 166.394 24.4449 165.761 23.3497 164.457ZM25.0073 163.105C26.3208 164.65 28.1604 164.448 30.5263 162.496C31.6039 161.581 32.2594 160.685 32.493 159.809C32.7265 158.932 32.5243 158.117 31.8862 157.362C30.5927 155.837 28.8194 156.002 26.5665 157.859C25.4485 158.807 24.7547 159.735 24.4853 160.644C24.2159 161.553 24.3899 162.373 25.0073 163.105Z" fill="white"/>
<path d="M27.6698 148.257C29.0359 150.373 28.8532 152.233 27.1215 153.837L25.4215 152.501C26.6106 151.57 26.8094 150.519 26.0179 149.348C25.354 148.365 24.5652 148.175 23.6517 148.776C23.326 148.978 23.0875 149.294 22.9832 149.662C22.8901 150.014 22.8996 150.522 23.0118 151.187L23.3461 153.246C23.6155 154.834 23.098 156.068 21.7938 156.948C20.9069 157.514 20.0094 157.697 19.1013 157.499C18.1931 157.301 17.4223 156.733 16.7888 155.797C15.6311 153.941 15.7669 152.274 17.1964 150.794L18.8735 152.097C17.9134 152.843 17.7581 153.72 18.4075 154.728C18.9975 155.6 19.6973 155.779 20.507 155.264C21.1596 154.823 21.3465 153.957 21.068 152.666L20.7795 150.811C20.5185 149.235 21.0672 147.988 22.4257 147.071C23.369 146.467 24.3145 146.27 25.2624 146.482C26.2103 146.693 27.0127 147.285 27.6698 148.257Z" fill="white"/>
<path d="M19.1391 144.967L23.9116 142.443L24.9682 144.44L13.8319 150.328L12.7753 148.331L17.4242 145.873L15.3476 141.949L10.6987 144.408L9.64209 142.411L20.7784 136.523L21.8361 138.52L17.0625 141.043L19.1391 144.967Z" fill="white"/>
<path d="M20.276 135.4L8.53526 139.969L7.71561 137.864L13.2322 135.718L6.30068 134.231L5.41577 131.959L12.7423 133.526L16.9035 126.74L17.912 129.329L14.2568 135.314L19.4563 133.292L20.276 135.4Z" fill="white"/>
<path d="M14.2304 124.576L12.9895 120.066L14.9756 119.521L16.8153 126.207L4.66702 129.545L2.86401 122.994L4.7918 122.464L6.00067 126.857L9.1442 125.993L8.25357 122.756L10.1241 122.242L11.009 125.46L14.2304 124.576Z" fill="white"/>
<path d="M14.6884 118.498L2.25047 120.516L1.90704 118.365L9.57698 111.959L1.08854 113.332L0.730225 111.123L13.167 109.108L13.5104 111.22L5.74544 117.68L14.3312 116.29L14.6884 118.498Z" fill="white"/>
<path d="M2.29738 103.451L12.843 102.927L12.9574 105.183L2.41071 105.707L2.56868 108.901L0.533291 109.003L0.104004 100.381L2.14169 100.279L2.29738 103.451Z" fill="white"/>
<path d="M13.2253 92.2735C12.9643 94.7788 11.6562 96.1134 9.30103 96.2774L8.81336 94.1714C10.3229 94.1897 11.1365 93.4953 11.254 92.0882C11.3517 90.9069 10.8556 90.264 9.76581 90.1595C9.38571 90.1133 9.00202 90.2104 8.68973 90.4318C8.39743 90.6483 8.08644 91.0503 7.75675 91.6375L6.72646 93.4575C5.94115 94.8631 4.76433 95.501 3.196 95.3714C2.14816 95.2578 1.33347 94.8383 0.751925 94.113C0.170385 93.3878 -0.0738331 92.4619 0.0192745 91.3355C0.279518 89.1642 1.43039 87.9494 3.47189 87.6908L3.96757 89.7614C2.75183 89.7408 2.081 90.3269 1.95507 91.5197C1.86807 92.5691 2.30194 93.1468 3.25667 93.2528C4.04045 93.3168 4.72731 92.7586 5.31725 91.578L6.2571 89.9513C7.04165 88.5587 8.2509 87.9303 9.88486 88.066C10.9983 88.185 11.8584 88.6239 12.4652 89.3827C13.0719 90.1416 13.3253 91.1052 13.2253 92.2735Z" fill="white"/>
<path d="M8.63933 84.3664L13.9407 85.388L13.5126 87.6107L1.14111 85.2221L1.56926 83.004L6.73444 83.9992L7.5747 79.643L2.40951 78.6477L2.83766 76.4307L15.2091 78.8147L14.781 81.0318L9.47959 80.0102L8.63933 84.3664Z" fill="white"/>
<path d="M18.5405 68.1507L17.7964 70.4729L14.9058 70.4501L13.6729 74.2949L16.0392 75.9548L15.3008 78.2576L4.60181 70.3643L5.24173 68.3658L18.5405 68.1507ZM12.7296 70.4249L8.11853 70.3974L11.8963 73.0286L12.7296 70.4249Z" fill="white"/>
<path d="M14.82 63.346L19.7299 65.5916L18.7901 67.6508L7.33325 62.4057L8.27311 60.3523L13.0559 62.5395L14.9036 58.5048L10.1208 56.3175L11.0618 54.2584L22.5186 59.4977L21.5776 61.5569L16.6677 59.3113L14.82 63.346Z" fill="white"/>
<path d="M28.271 49.9215L27.0003 52.0036L24.1968 51.3012L22.0927 54.7468L24.001 56.9203L22.7418 58.9794L14.2041 48.7879L15.3008 46.9998L28.271 49.9215ZM22.0892 50.7646L17.6144 49.6516L20.6629 53.1018L22.0892 50.7646Z" fill="white"/>
<path d="M33.8459 42.8324L32.3795 44.712L26.9991 43.7693L26.2378 44.7463L30.0396 47.7069L28.651 49.488L18.759 41.7868C19.2142 40.6626 19.7932 39.5925 20.4853 38.5963C22.2727 36.3084 24.2165 35.9724 26.3168 37.5885C27.9584 38.8652 28.5434 40.2829 28.0717 41.8418L33.8459 42.8324ZM25.5051 42.5716C26.3897 41.4368 26.2187 40.3664 24.9923 39.3605C23.888 38.5002 22.8958 38.6326 22.0159 39.7575C21.6061 40.2837 21.3802 40.6822 21.3382 40.9529L24.7141 43.584L25.5051 42.5716Z" fill="white"/>
<path d="M40.0277 36.7499C38.9172 37.8062 37.6882 38.2211 36.3404 37.9946C34.9926 37.7681 33.68 36.9841 32.4024 35.6426L27.7695 30.7796L29.4065 29.2226L34.3153 34.3705C34.8849 34.9965 35.6185 35.4506 36.4331 35.6815C37.21 35.8889 37.8969 35.7078 38.4937 35.1381C39.0905 34.5684 39.3053 33.8904 39.1382 33.1041C38.9471 32.2814 38.5296 31.5285 37.9328 30.9306L33.024 25.7827L34.661 24.2258L39.2939 29.0899C40.5714 30.4322 41.2926 31.7786 41.4575 33.1293C41.6223 34.4799 41.1457 35.6868 40.0277 36.7499Z" fill="white"/>
<path d="M49.0153 25.1833L50.9728 25.9681C50.6973 27.4056 49.9071 28.6091 48.602 29.5784C47.2123 30.6133 45.7973 30.9565 44.3572 30.608C42.9171 30.2595 41.5796 29.2573 40.3448 27.6016C39.0779 25.9025 38.4788 24.2799 38.5475 22.7341C38.6162 21.1882 39.3508 19.8917 40.7512 18.8446C41.8731 18.0057 43.1705 17.6381 44.6434 17.7418L44.8438 19.8879C43.7341 19.8497 42.8106 20.1056 42.0734 20.6555C41.2606 21.2603 40.8581 22.0416 40.8657 22.9995C40.8733 23.9573 41.2996 25.0025 42.1444 26.1351C42.9976 27.279 43.8753 27.9807 44.7774 28.24C45.6794 28.4993 46.5521 28.3147 47.3954 27.6863C48.1838 27.0975 48.7238 26.2632 49.0153 25.1833Z" fill="white"/>
<path d="M51.5279 20.8694L54.2456 25.5322L52.2926 26.6693L45.9529 15.7879L47.9058 14.6519L50.5525 19.1946L54.3887 16.9616L51.742 12.42L53.6961 11.2829L60.0346 22.1643L58.0817 23.3003L55.3674 18.6375L51.5279 20.8694Z" fill="white"/>
<path d="M61.4211 9.97196L65.7002 19.619L63.6397 20.5342L59.3617 10.8871L56.4357 12.1832L55.6091 10.3186L63.508 6.82147L64.3345 8.685L61.4211 9.97196Z" fill="white"/>
<path d="M70.8573 15.4264L75.3013 13.9587L75.9481 15.9126L69.3588 18.0861L65.4048 6.13736L71.8601 4.005L72.4886 5.90285L68.1591 7.33281L69.1814 10.4215L72.3718 9.36792L72.9808 11.2086L69.8098 12.2564L70.8573 15.4264Z" fill="white"/>
<path d="M79.2017 15.1187L77.0038 15.6186L74.2231 3.39877C74.7503 3.10096 75.2968 2.83879 75.859 2.614C76.4172 2.37683 76.9909 2.17808 77.5762 2.01914C78.9926 1.69731 80.1309 1.77357 80.991 2.24793C81.8511 2.7223 82.43 3.61574 82.7276 4.92825C83.3656 7.73554 82.2621 9.46827 79.417 10.1264L78.1291 10.4181L79.2017 15.1187ZM78.9396 8.27207C79.6417 8.11267 80.1351 7.80266 80.4198 7.34202C80.7044 6.88138 80.7571 6.25449 80.5777 5.46134C80.4114 4.7353 80.1137 4.25293 79.6848 4.01422C79.2559 3.77551 78.6771 3.73967 77.9482 3.90669C77.6931 3.96193 77.443 4.03846 77.2007 4.13548C77.0357 4.19266 76.8811 4.27611 76.7428 4.38258L77.6906 8.55462L78.9396 8.27207Z" fill="white"/>
<path d="M93.676 12.7015L91.2571 13.0241L90.0414 10.4033L86.0347 10.9364L85.5459 13.7826L83.1418 14.1017L85.7038 1.0605L87.793 0.783661L93.676 12.7015ZM89.1381 8.4265L87.192 4.24988L86.417 8.79143L89.1381 8.4265Z" fill="white"/>
<path d="M102.233 2.0946L102.119 12.6454L99.8589 12.6225L99.9734 2.07058L96.7681 2.03741L96.7887 0L105.428 0.0880859L105.406 2.12664L102.233 2.0946Z" fill="white"/>
<path d="M110.748 13.4634C109.227 13.2758 108.126 12.5894 107.445 11.4042C106.765 10.2191 106.539 8.7079 106.768 6.87068L107.591 0.205933L109.834 0.482772L108.962 7.54448C108.838 8.38124 108.953 9.23589 109.292 10.0109C109.624 10.7438 110.2 11.1606 111.022 11.2612C111.843 11.3619 112.503 11.098 113.003 10.4696C113.519 9.79935 113.836 8.99796 113.919 8.1565L114.791 1.0948L117.034 1.37164L116.211 8.03639C115.982 9.87436 115.398 11.2853 114.459 12.2691C113.521 13.2529 112.283 13.651 110.748 13.4634Z" fill="white"/>
<path d="M121.663 15.312L120.838 7.06057L118.818 14.5684L116.656 13.9873L119.925 1.82806L122.127 2.41949L123.36 12.9314L129.679 4.44775L131.881 5.03918L128.611 17.1984L126.448 16.6173L128.467 9.10941L123.614 15.8359L121.663 15.312Z" fill="white"/>
<path d="M138.85 21.5672L136.604 20.6165L136.889 17.7417L133.169 16.1665L131.3 18.3698L129.072 17.426L137.911 7.49524L139.845 8.31432L138.85 21.5672ZM137.111 15.5785L137.557 10.9923L134.585 14.5112L137.111 15.5785Z" fill="white"/>
<path d="M139.332 21.8452L145.621 10.9352L147.51 12.0231L147.636 22.0134L151.929 14.5673L153.875 15.6849L147.578 26.5938L145.725 25.5265L145.611 15.4298L141.267 22.9628L139.332 21.8452Z" fill="white"/>
<path d="M148.706 27.486L155.886 17.1423L157.743 18.4293L150.564 28.7753L148.706 27.486Z" fill="white"/>
<path d="M161.117 37.4272L159.189 35.7444L160.276 30.6709L155.498 32.523L153.569 30.8414L160.66 28.3784L162.033 21.5146L163.98 23.2099L162.972 27.7973L167.399 26.1957L169.221 27.7858L162.601 30.0737L161.117 37.4272Z" fill="white"/>
<path d="M168.175 45.1855L166.536 43.3803L168.002 40.8899L165.287 37.9007L162.665 39.1168L161.04 37.3265L173.233 32.0139L174.644 33.5674L168.175 45.1855ZM169.113 39.0195L171.447 35.0443L167.274 36.989L169.113 39.0195Z" fill="white"/>
<path d="M168.537 45.801L178.707 38.3652L180.041 40.1887L171.501 46.4291L174.263 50.2042L172.632 51.395L168.537 45.801Z" fill="white"/>
<path d="M173.755 58.1455L174.854 55.408C174.113 54.0497 173.982 52.7029 174.463 51.3675C174.969 49.9711 176.083 48.7646 177.806 47.748C179.528 46.7314 181.136 46.3398 182.628 46.5732C184.109 46.8119 185.28 47.6603 186.141 49.1185C186.948 50.4836 187.087 51.8713 186.558 53.2814C186.028 54.6915 184.914 55.8984 183.216 56.902C181.494 57.9194 179.899 58.3118 178.43 58.0792C177.739 57.9733 177.083 57.7094 176.511 57.3081L175.66 59.3673L173.755 58.1455ZM176.809 54.51C177.825 56.2305 179.567 56.3865 182.032 54.9779C183.261 54.2526 184.073 53.4717 184.469 52.635C184.864 51.7984 184.818 50.9671 184.33 50.1412C183.297 48.397 181.491 48.2651 178.913 49.7454C176.536 51.1441 175.835 52.7323 176.809 54.51Z" fill="white"/>
<path d="M191.109 64.3047L181.313 68.2468L180.47 66.1522L190.264 62.2147L189.069 59.2403L190.962 58.4785L194.19 66.4862L192.297 67.2481L191.109 64.3047Z" fill="white"/>
<path d="M185.105 80.0514L184.418 77.7131L186.822 76.1058L185.678 72.2346L182.788 72.1935L182.093 69.8792L195.383 70.3894L195.979 72.4017L185.105 80.0514ZM188.628 74.9035L192.456 72.3342L187.85 72.2781L188.628 74.9035Z" fill="white"/>
<path d="M197.741 79.7334C197.819 80.1109 197.717 80.4849 197.439 80.8545C197.247 81.1118 196.921 81.2857 196.465 81.3795C195.899 81.4802 195.302 81.3906 194.674 81.1107C194.078 80.8593 193.584 80.4133 193.274 79.8455L194.018 79.2861C194.429 79.7059 194.845 79.9061 195.263 79.8901C195.298 79.6217 195.414 79.3703 195.595 79.1694C195.777 78.9685 196.016 78.8276 196.279 78.7656C196.458 78.7222 196.644 78.7213 196.823 78.7628C197.002 78.8043 197.168 78.8871 197.309 79.0046C197.533 79.1909 197.685 79.4482 197.741 79.7334Z" fill="white"/>
<path d="M186.042 85.3022L198.538 83.6858L198.828 85.9245L188.337 87.2824L188.938 91.9212L186.934 92.1797L186.042 85.3022Z" fill="white"/>
<path d="M186.959 93.231L199.543 92.579L199.657 94.8349L187.075 95.4858L186.959 93.231Z" fill="white"/>
<path d="M187.187 102.073L195.051 99.4222L187.276 99.1362L187.358 96.8998L199.95 97.3574L199.867 99.635L189.889 103.181L199.579 107.438L199.495 109.714L186.902 109.257L186.985 107.02L194.759 107.306L187.113 104.085L187.187 102.073Z" fill="white"/>
<path d="M186.531 110.617L199.009 112.333L198.701 114.571L186.223 112.855L186.531 110.617Z" fill="white"/>
<path d="M184.622 120.846L185.556 117.145L197.715 120.214C197.76 120.776 197.76 121.342 197.715 121.905C197.673 122.554 197.573 123.198 197.415 123.829C196.757 126.438 195.233 127.462 192.845 126.903C191.409 126.54 190.615 125.789 190.462 124.652C189.928 125.398 189.36 125.866 188.757 126.057C188.188 126.247 187.578 126.272 186.996 126.129C186.525 126.021 186.083 125.813 185.7 125.519C185.317 125.225 185.001 124.852 184.775 124.426C184.295 123.537 184.244 122.344 184.622 120.846ZM186.624 121.166C186.223 122.755 186.54 123.68 187.574 123.94C188.673 124.217 189.444 123.559 189.887 121.966L190.23 120.611L186.972 119.789L186.624 121.166ZM191.856 122.257C191.522 123.575 192.006 124.411 193.306 124.766C194.481 125.062 195.247 124.617 195.602 123.428C195.723 122.96 195.762 122.475 195.717 121.994L192.149 121.095L191.856 122.257Z" fill="white"/>
<path d="M193.843 135.227C193.283 136.71 192.271 137.681 190.808 138.141C189.345 138.601 187.666 138.473 185.771 137.757C183.838 137.027 182.487 136.011 181.718 134.71C180.948 133.409 180.855 131.985 181.438 130.439C182.023 128.893 183.034 127.886 184.472 127.417C185.91 126.949 187.596 127.079 189.53 127.809C191.463 128.538 192.815 129.562 193.587 130.878C194.358 132.194 194.444 133.644 193.843 135.227ZM191.856 134.434C192.572 132.538 191.503 131.031 188.65 129.912C187.329 129.414 186.227 129.276 185.344 129.498C184.462 129.721 183.847 130.293 183.498 131.214C182.791 133.084 183.797 134.553 186.514 135.621C187.888 136.139 189.037 136.295 189.962 136.089C190.887 135.882 191.518 135.331 191.856 134.434Z" fill="white"/>
<path d="M185.756 141.492C185.834 141.325 185.948 141.177 186.09 141.06C186.231 140.942 186.397 140.858 186.576 140.812C186.979 140.71 187.406 140.763 187.772 140.961C188.282 141.224 188.702 141.657 189.031 142.261C189.353 142.823 189.474 143.477 189.375 144.117L188.444 144.109C188.373 143.526 188.166 143.114 187.824 142.874C187.633 143.064 187.388 143.193 187.122 143.242C186.857 143.291 186.582 143.258 186.336 143.148C186.168 143.074 186.02 142.961 185.904 142.82C185.788 142.678 185.706 142.511 185.666 142.332C185.599 142.05 185.631 141.753 185.756 141.492Z" fill="white"/>
<path d="M177.092 140.618L187.992 146.932L186.859 148.886L177.701 143.584L175.354 147.63L173.607 146.618L177.092 140.618Z" fill="white"/>
<path d="M172.964 147.486L183.411 154.524L182.151 156.396L171.703 149.359L172.964 147.486Z" fill="white"/>
<path d="M167.784 154.612L175.633 157.3L169.645 152.338L171.075 150.615L180.773 158.651L179.318 160.405L169.244 157.144L174.329 166.421L172.874 168.175L163.17 160.138L164.6 158.415L170.589 163.378L166.492 156.171L167.784 154.612Z" fill="white"/>
<path d="M162.052 160.987L170.908 169.943L169.305 171.53L160.449 162.574L162.052 160.987Z" fill="white"/>
<path d="M83.6731 168.662L82.4745 168.433L84.1642 159.384C84.0169 159.48 83.8609 159.561 83.6983 159.627C83.481 159.719 83.259 159.8 83.0331 159.869C82.7889 159.946 82.5348 160.012 82.2707 160.067C82.0184 160.122 81.7624 160.157 81.5049 160.174L81.7338 158.961C82.0338 158.934 82.3317 158.887 82.6256 158.822C82.9439 158.753 83.2598 158.668 83.5735 158.568C83.8871 158.467 84.1859 158.357 84.471 158.236C84.7289 158.129 84.9794 158.005 85.2208 157.865L85.6787 157.95L83.6731 168.662Z" fill="white"/>
<path d="M98.2506 164.347C98.1913 165.222 98.0233 166.085 97.7503 166.919C97.5328 167.593 97.1933 168.223 96.7487 168.775C96.3609 169.252 95.8616 169.626 95.2948 169.864C94.7064 170.1 94.0699 170.19 93.4392 170.127C92.8008 170.089 92.1787 169.911 91.6167 169.606L91.7117 168.443C92.2581 168.817 92.8927 169.041 93.5525 169.093C93.9986 169.137 94.4486 169.071 94.8632 168.901C95.2661 168.728 95.62 168.459 95.8935 168.116C96.2112 167.714 96.4532 167.258 96.6079 166.77C96.8049 166.158 96.9268 165.525 96.9708 164.883H96.941C96.4121 165.76 95.5844 166.152 94.458 166.061C94.0281 166.03 93.6088 165.913 93.2251 165.717C92.8649 165.532 92.548 165.273 92.2955 164.957C92.0377 164.631 91.8474 164.256 91.7357 163.856C91.6153 163.414 91.5765 162.953 91.6213 162.497C91.655 162.006 91.7812 161.525 91.9933 161.081C92.1871 160.677 92.4595 160.315 92.7947 160.017C93.1276 159.726 93.5174 159.508 93.9394 159.376C94.385 159.235 94.8542 159.183 95.32 159.223C95.8131 159.254 96.2913 159.404 96.7132 159.661C97.1158 159.918 97.4473 160.272 97.6771 160.691C97.9439 161.18 98.1204 161.713 98.1979 162.265C98.2994 162.954 98.3171 163.653 98.2506 164.347ZM97.028 163.151C97.063 162.773 97.0402 162.392 96.9605 162.02C96.892 161.701 96.7663 161.397 96.5896 161.122C96.4293 160.874 96.2153 160.666 95.9634 160.512C95.711 160.359 95.4257 160.268 95.1311 160.247C94.8503 160.221 94.5673 160.258 94.3023 160.354C94.0423 160.449 93.8051 160.597 93.6063 160.789C93.3976 160.994 93.2287 161.236 93.1083 161.502C92.9752 161.796 92.8954 162.111 92.8725 162.433C92.839 162.774 92.8626 163.119 92.9423 163.452C93.0097 163.738 93.1365 164.006 93.3144 164.239C93.4854 164.46 93.7042 164.64 93.9543 164.764C94.2246 164.897 94.5183 164.974 94.8186 164.993C95.092 165.017 95.3674 164.985 95.6279 164.899C95.8783 164.818 96.1112 164.69 96.3148 164.523C96.5154 164.356 96.6814 164.152 96.8036 163.921C96.9305 163.683 97.0069 163.421 97.028 163.151Z" fill="white"/>
<path d="M109.672 160.301C109.519 160.587 109.333 160.945 109.113 161.374C108.893 161.802 108.664 162.282 108.426 162.814C108.184 163.348 107.939 163.92 107.69 164.53C107.441 165.14 107.212 165.771 107.003 166.424C106.79 167.076 106.605 167.734 106.45 168.4C106.298 169.045 106.19 169.701 106.126 170.361L104.819 170.401C104.893 169.742 105.011 169.09 105.172 168.447C105.338 167.78 105.529 167.124 105.744 166.482C105.959 165.839 106.188 165.219 106.431 164.621C106.676 164.024 106.914 163.474 107.146 162.971C107.378 162.467 107.592 162.024 107.786 161.64C107.98 161.254 108.136 160.953 108.253 160.738L102.911 160.9L102.876 159.802L109.654 159.594L109.672 160.301Z" fill="white"/>
<path d="M120.505 158.738C120.392 159.043 120.259 159.424 120.105 159.882C119.951 160.34 119.793 160.848 119.63 161.407C119.467 161.969 119.306 162.57 119.147 163.211C118.988 163.852 118.85 164.51 118.731 165.185C118.614 165.86 118.526 166.538 118.467 167.219C118.409 167.88 118.396 168.544 118.428 169.206L117.139 169.435C117.118 168.773 117.141 168.11 117.209 167.45C117.278 166.764 117.373 166.088 117.494 165.423C117.615 164.758 117.755 164.11 117.912 163.479C118.064 162.852 118.222 162.274 118.383 161.743C118.545 161.212 118.693 160.743 118.826 160.335C118.963 159.925 119.074 159.606 119.16 159.374L113.894 160.299L113.702 159.217L120.381 158.044L120.505 158.738Z" fill="white"/>
<path d="M99.3116 40.0228L82.4939 30.8356" stroke="#FDFDFB" stroke-miterlimit="10"/>
<path d="M113.954 40.6761C113.954 41.3785 113.215 41.9459 112.304 41.9459C111.392 41.9459 110.654 41.3739 110.654 40.6761C110.654 40.0892 111.176 39.5927 111.885 39.4497C111.611 39.3228 111.427 39.0928 111.427 38.8286C111.427 38.4248 111.849 38.0987 112.371 38.0987C112.893 38.0987 113.316 38.4248 113.316 38.8286C113.316 39.1054 113.114 39.3468 112.815 39.4715C113.476 39.6396 113.954 40.1144 113.954 40.6761Z" fill="#6B4A00"/>
</svg>